{
  "accessors": [
    {
      "bufferView": 2,
      "componentType": 5126,
      "count": 65532,
      "max": [
        7.647439002990723,
        3.4709229469299316,
        3.6434130668640137
      ],
      "min": [
        -7.631938934326172,
        -6.571739196777344,
        -0.17582400143146515
      ],
      "type": "VEC3"
    },
    {
      "bufferView": 2,
      "byteOffset": 786384,
      "componentType": 5126,
      "count": 65532,
      "max": [
        0.9999259114265442,
        0.9999621510505676,
        0.9999994039535522
      ],
      "min": [
        -0.9999801516532898,
        -0.9999621510505676,
        -0.9999638199806213
      ],
      "type": "VEC3"
    },
    {
      "bufferView": 1,
      "componentType": 5126,
      "count": 65532,
      "max": [
        0.970533013343811,
        0.9986370205879211
      ],
      "min": [
        0.0007740000146441162,
        0.06781700253486633
      ],
      "type": "VEC2"
    },
    {
      "bufferView": 0,
      "componentType": 5125,
      "count": 310497,
      "type": "SCALAR"
    },
    {
      "bufferView": 2,
      "byteOffset": 1572768,
      "componentType": 5126,
      "count": 65532,
      "max": [
        7.265839099884033,
        2.9842441082000732,
        3.6724390983581543
      ],
      "min": [
        -7.218861103057861,
        -6.3123698234558105,
        0.7739790081977844
      ],
      "type": "VEC3"
    },
    {
      "bufferView": 2,
      "byteOffset": 2359152,
      "componentType": 5126,
      "count": 65532,
      "max": [
        0.9999991655349731,
        0.9999938011169434,
        0.9999994039535522
      ],
      "min": [
        -0.9998940825462341,
        -0.9999728202819824,
        -0.8768753409385681
      ],
      "type": "VEC3"
    },
    {
      "bufferView": 1,
      "byteOffset": 524256,
      "componentType": 5126,
      "count": 65532,
      "max": [
        0.9913769960403442,
        0.996878981590271
      ],
      "min": [
        0.00035600000410340726,
        0.022141000255942345
      ],
      "type": "VEC2"
    },
    {
      "bufferView": 0,
      "byteOffset": 1241988,
      "componentType": 5125,
      "count": 299277,
      "type": "SCALAR"
    },
    {
      "bufferView": 2,
      "byteOffset": 3145536,
      "componentType": 5126,
      "count": 65532,
      "max": [
        7.311902046203613,
        2.9900550842285156,
        3.661623954772949
      ],
      "min": [
        -7.243631839752197,
        -6.315774917602539,
        0.7463949918746948
      ],
      "type": "VEC3"
    },
    {
      "bufferView": 2,
      "byteOffset": 3931920,
      "componentType": 5126,
      "count": 65532,
      "max": [
        0.9999938607215881,
        0.9999996423721313,
        0.9999998807907104
      ],
      "min": [
        -0.9999619722366333,
        -0.9999999403953552,
        -0.9972968101501465
      ],
      "type": "VEC3"
    },
    {
      "bufferView": 1,
      "byteOffset": 1048512,
      "componentType": 5126,
      "count": 65532,
      "max": [
        0.9949269890785217,
        0.9996780157089233
      ],
      "min": [
        0.0006779999821446836,
        0.018053999170660973
      ],
      "type": "VEC2"
    },
    {
      "bufferView": 0,
      "byteOffset": 2439096,
      "componentType": 5125,
      "count": 259782,
      "type": "SCALAR"
    },
    {
      "bufferView": 2,
      "byteOffset": 4718304,
      "componentType": 5126,
      "count": 65532,
      "max": [
        7.309223175048828,
        3.0047950744628906,
        3.6634678840637207
      ],
      "min": [
        -7.243904113769531,
        -6.313698768615723,
        0.7534719705581665
      ],
      "type": "VEC3"
    },
    {
      "bufferView": 2,
      "byteOffset": 5504688,
      "componentType": 5126,
      "count": 65532,
      "max": [
        0.9999809265136719,
        0.9999999403953552,
        1.0
      ],
      "min": [
        -0.9984086751937866,
        -0.9999988675117493,
        -0.9992268085479736
      ],
      "type": "VEC3"
    },
    {
      "bufferView": 1,
      "byteOffset": 1572768,
      "componentType": 5126,
      "count": 65532,
      "max": [
        0.9965659976005554,
        0.9997140169143677
      ],
      "min": [
        0.00030700000934302807,
        0.02072799950838089
      ],
      "type": "VEC2"
    },
    {
      "bufferView": 0,
      "byteOffset": 3478224,
      "componentType": 5125,
      "count": 194457,
      "type": "SCALAR"
    },
    {
      "bufferView": 2,
      "byteOffset": 6291072,
      "componentType": 5126,
      "count": 65533,
      "max": [
        7.308992862701416,
        3.012176036834717,
        3.67057204246521
      ],
      "min": [
        -7.169754981994629,
        -6.3136091232299805,
        0.7878850102424622
      ],
      "type": "VEC3"
    },
    {
      "bufferView": 2,
      "byteOffset": 7077468,
      "componentType": 5126,
      "count": 65533,
      "max": [
        1.0,
        1.0,
        1.0
      ],
      "min": [
        -0.9999619722366333,
        -1.0,
        -0.9988027215003967
      ],
      "type": "VEC3"
    },
    {
      "bufferView": 1,
      "byteOffset": 2097024,
      "componentType": 5126,
      "count": 65533,
      "max": [
        0.9966409802436829,
        0.9996790289878845
      ],
      "min": [
        0.00028199999360367656,
        0.019852999597787857
      ],
      "type": "VEC2"
    },
    {
      "bufferView": 0,
      "byteOffset": 4256052,
      "componentType": 5125,
      "count": 110895,
      "type": "SCALAR"
    },
    {
      "bufferView": 2,
      "byteOffset": 7863864,
      "componentType": 5126,
      "count": 25844,
      "max": [
        7.282444000244141,
        3.0109670162200928,
        3.6724390983581543
      ],
      "min": [
        -7.156685829162598,
        -6.31334114074707,
        0.7919729948043823
      ],
      "type": "VEC3"
    },
    {
      "bufferView": 2,
      "byteOffset": 8173992,
      "componentType": 5126,
      "count": 25844,
      "max": [
        0.9999675154685974,
        0.9999977946281433,
        1.0
      ],
      "min": [
        -0.9999619722366333,
        -0.9999990463256836,
        -0.9988027215003967
      ],
      "type": "VEC3"
    },
    {
      "bufferView": 1,
      "byteOffset": 2621288,
      "componentType": 5126,
      "count": 25844,
      "max": [
        0.9939090013504028,
        0.9980840086936951
      ],
      "min": [
        0.0009730000165291131,
        0.019843000918626785
      ],
      "type": "VEC2"
    },
    {
      "bufferView": 0,
      "byteOffset": 4699632,
      "componentType": 5125,
      "count": 29028,
      "type": "SCALAR"
    }
  ],
  "asset": {
    "extras": {
      "author": "Moshe Caine (https://sketchfab.com/mosheca)",
      "license": "CC-BY-4.0 (http://creativecommons.org/licenses/by/4.0/)",
      "source": "https://sketchfab.com/3d-models/the-works-of-william-shakespeare-15a8bcd0b2d1493c86d7f21dc572c63b",
      "title": "The Works of William Shakespeare"
    },
    "generator": "Sketchfab-12.29.0",
    "version": "2.0"
  },
  "bufferViews": [
    {
      "buffer": 0,
      "byteLength": 4815744,
      "name": "floatBufferViews",
      "target": 34963
    },
    {
      "buffer": 0,
      "byteLength": 2828040,
      "byteOffset": 4815744,
      "byteStride": 8,
      "name": "floatBufferViews",
      "target": 34962
    },
    {
      "buffer": 0,
      "byteLength": 8484120,
      "byteOffset": 7643784,
      "byteStride": 12,
      "name": "floatBufferViews",
      "target": 34962
    }
  ],
  "buffers": [
    {
      "byteLength": 16127904,
      "uri": "scene.bin"
    }
  ],
  "extensionsRequired": [
    "KHR_materials_pbrSpecularGlossiness"
  ],
  "extensionsUsed": [
    "KHR_materials_pbrSpecularGlossiness"
  ],
  "images": [
    {
      "uri": "textures/material_0_diffuse.jpeg"
    }
  ],
  "materials": [
    {
      "doubleSided": true,
      "extensions": {
        "KHR_materials_pbrSpecularGlossiness": {
          "diffuseFactor": [
            1.0,
            1.0,
            1.0,
            1.0
          ],
          "diffuseTexture": {
            "index": 0
          },
          "glossinessFactor": 0.0,
          "specularFactor": [
            0.0,
            0.0,
            0.0
          ]
        }
      },
      "name": "material_0"
    }
  ],
  "meshes": [
    {
      "name": "Object_0",
      "primitives": [
        {
          "attributes": {
            "NORMAL": 1,
            "POSITION": 0,
            "TEXCOORD_0": 2
          },
          "indices": 3,
          "material": 0,
          "mode": 4
        }
      ]
    },
    {
      "name": "Object_1",
      "primitives": [
        {
          "attributes": {
            "NORMAL": 5,
            "POSITION": 4,
            "TEXCOORD_0": 6
          },
          "indices": 7,
          "material": 0,
          "mode": 4
        }
      ]
    },
    {
      "name": "Object_2",
      "primitives": [
        {
          "attributes": {
            "NORMAL": 9,
            "POSITION": 8,
            "TEXCOORD_0": 10
          },
          "indices": 11,
          "material": 0,
          "mode": 4
        }
      ]
    },
    {
      "name": "Object_3",
      "primitives": [
        {
          "attributes": {
            "NORMAL": 13,
            "POSITION": 12,
            "TEXCOORD_0": 14
          },
          "indices": 15,
          "material": 0,
          "mode": 4
        }
      ]
    },
    {
      "name": "Object_4",
      "primitives": [
        {
          "attributes": {
            "NORMAL": 17,
            "POSITION": 16,
            "TEXCOORD_0": 18
          },
          "indices": 19,
          "material": 0,
          "mode": 4
        }
      ]
    },
    {
      "name": "Object_5",
      "primitives": [
        {
          "attributes": {
            "NORMAL": 21,
            "POSITION": 20,
            "TEXCOORD_0": 22
          },
          "indices": 23,
          "material": 0,
          "mode": 4
        }
      ]
    }
  ],
  "nodes": [
    {
      "children": [
        1
      ],
      "matrix": [
        1.0,
        0.0,
        0.0,
        0.0,
        0.0,
        2.220446049250313e-16,
        -1.0,
        0.0,
        0.0,
        1.0,
        2.220446049250313e-16,
        0.0,
        0.0,
        0.0,
        0.0,
        1.0
      ],
      "name": "Sketchfab_model"
    },
    {
      "children": [
        2,
        3,
        4,
        5,
        6,
        7
      ],
      "name": "open2.obj.cleaner.materialmerger.gles"
    },
    {
      "mesh": 0,
      "name": "Object_2"
    },
    {
      "mesh": 1,
      "name": "Object_3"
    },
    {
      "mesh": 2,
      "name": "Object_4"
    },
    {
      "mesh": 3,
      "name": "Object_5"
    },
    {
      "mesh": 4,
      "name": "Object_6"
    },
    {
      "mesh": 5,
      "name": "Object_7"
    }
  ],
  "samplers": [
    {
      "magFilter": 9729,
      "minFilter": 9987,
      "wrapS": 10497,
      "wrapT": 10497
    }
  ],
  "scene": 0,
  "scenes": [
    {
      "name": "Sketchfab_Scene",
      "nodes": [
        0
      ]
    }
  ],
  "textures": [
    {
      "sampler": 0,
      "source": 0
    }
  ]
}
