{
  "accessors": [
    {
      "bufferView": 2,
      "componentType": 5126,
      "count": 8842,
      "max": [
        0.19599999487400055,
        1.4375400543212891,
        2.7320001125335693
      ],
      "min": [
        0.090340003371238708,
        -1.4391100406646729,
        -2.8463199138641357
      ],
      "type": "VEC3"
    },
    {
      "bufferView": 2,
      "byteOffset": 106104,
      "componentType": 5126,
      "count": 8842,
      "max": [
        1,
        1,
        1
      ],
      "min": [
        -1,
        -1,
        -1
      ],
      "type": "VEC3"
    },
    {
      "bufferView": 3,
      "componentType": 5126,
      "count": 8842,
      "max": [
        1,
        1,
        0.96831583976745605,
        1
      ],
      "min": [
        -0.61911314725875854,
        -1,
        -0.96816056966781616,
        -1
      ],
      "type": "VEC4"
    },
    {
      "bufferView": 1,
      "componentType": 5126,
      "count": 8842,
      "max": [
        1.0987700223922729,
        1.0325499773025513
      ],
      "min": [
        -0.62643998861312866,
        -0.77209997177124023
      ],
      "type": "VEC2"
    },
    {
      "bufferView": 0,
      "componentType": 5125,
      "count": 17055,
      "max": [
        8841
      ],
      "min": [
        0
      ],
      "type": "SCALAR"
    },
    {
      "bufferView": 2,
      "byteOffset": 212208,
      "componentType": 5126,
      "count": 18441,
      "max": [
        2.9430201053619385,
        3.6608800888061523,
        1.0671199560165405
      ],
      "min": [
        -1.3831499814987183,
        -4.1899499893188477,
        -0.1575700044631958
      ],
      "type": "VEC3"
    },
    {
      "bufferView": 2,
      "byteOffset": 433500,
      "componentType": 5126,
      "count": 18441,
      "max": [
        1,
        1,
        1
      ],
      "min": [
        -1,
        -1,
        -1
      ],
      "type": "VEC3"
    },
    {
      "bufferView": 3,
      "byteOffset": 141472,
      "componentType": 5126,
      "count": 18441,
      "max": [
        0.97733855247497559,
        1,
        0.99998563528060913,
        1
      ],
      "min": [
        -0.98876088857650757,
        -0.99878895282745361,
        -0.99998587369918823,
        -1
      ],
      "type": "VEC4"
    },
    {
      "bufferView": 1,
      "byteOffset": 70736,
      "componentType": 5126,
      "count": 18441,
      "max": [
        0.99993997812271118,
        0.30853000283241272
      ],
      "min": [
        0,
        0
      ],
      "type": "VEC2"
    },
    {
      "bufferView": 0,
      "byteOffset": 68220,
      "componentType": 5125,
      "count": 102414,
      "max": [
        18440
      ],
      "min": [
        0
      ],
      "type": "SCALAR"
    },
    {
      "bufferView": 2,
      "byteOffset": 654792,
      "componentType": 5126,
      "count": 8285,
      "max": [
        0.18483999371528625,
        1.6170300245285034,
        0.072930000722408295
      ],
      "min": [
        -0.013539999723434448,
        -1.6178900003433228,
        -5.6720199584960938
      ],
      "type": "VEC3"
    },
    {
      "bufferView": 2,
      "byteOffset": 754212,
      "componentType": 5126,
      "count": 8285,
      "max": [
        0.99999785423278809,
        0.99999773502349854,
        0.99999988079071045
      ],
      "min": [
        -0.99999797344207764,
        -0.99999773502349854,
        -1
      ],
      "type": "VEC3"
    },
    {
      "bufferView": 3,
      "byteOffset": 436528,
      "componentType": 5126,
      "count": 8285,
      "max": [
        0.98130464553833008,
        0.5592377781867981,
        1,
        1
      ],
      "min": [
        -0.99999940395355225,
        -0.99999988079071045,
        -0.68419671058654785,
        -1
      ],
      "type": "VEC4"
    },
    {
      "bufferView": 1,
      "byteOffset": 218264,
      "componentType": 5126,
      "count": 8285,
      "max": [
        0.5420299768447876,
        1.0539400577545166
      ],
      "min": [
        0.16762000322341919,
        -0.011389999650418758
      ],
      "type": "VEC2"
    },
    {
      "bufferView": 0,
      "byteOffset": 477876,
      "componentType": 5125,
      "count": 12759,
      "max": [
        8284
      ],
      "min": [
        0
      ],
      "type": "SCALAR"
    }
  ],
  "asset": {
    "extras": {
      "author": "Pavan Salam (https://sketchfab.com/pavansalam)",
      "license": "CC-BY-4.0 (http://creativecommons.org/licenses/by/4.0/)",
      "source": "https://sketchfab.com/models/ea0815a578db412389bd57d945b1d6bf",
      "title": "wooden door"
    },
    "generator": "Sketchfab-4.4.0",
    "version": "2.0"
  },
  "bufferViews": [
    {
      "buffer": 0,
      "byteLength": 528912,
      "byteOffset": 0,
      "name": "floatBufferViews",
      "target": 34963
    },
    {
      "buffer": 0,
      "byteLength": 284544,
      "byteOffset": 528912,
      "byteStride": 8,
      "name": "floatBufferViews",
      "target": 34962
    },
    {
      "buffer": 0,
      "byteLength": 853632,
      "byteOffset": 813456,
      "byteStride": 12,
      "name": "floatBufferViews",
      "target": 34962
    },
    {
      "buffer": 0,
      "byteLength": 569088,
      "byteOffset": 1667088,
      "byteStride": 16,
      "name": "floatBufferViews",
      "target": 34962
    }
  ],
  "buffers": [
    {
      "byteLength": 2236176,
      "uri": "scene.bin"
    }
  ],
  "extensionsRequired": [
    "KHR_materials_pbrSpecularGlossiness"
  ],
  "extensionsUsed": [
    "KHR_materials_pbrSpecularGlossiness"
  ],
  "images": [
    {
      "uri": "textures/wood_specularGlossiness.png"
    },
    {
      "uri": "textures/wood_normal.png"
    },
    {
      "uri": "textures/wood_diffuse.jpeg"
    },
    {
      "uri": "textures/steel_normal.png"
    },
    {
      "uri": "textures/steel_diffuse.jpeg"
    }
  ],
  "materials": [
    {
      "doubleSided": true,
      "extensions": {
        "KHR_materials_pbrSpecularGlossiness": {
          "diffuseFactor": [
            1,
            1,
            1,
            1
          ],
          "diffuseTexture": {
            "index": 2,
            "texCoord": 0
          },
          "glossinessFactor": 1,
          "specularFactor": [
            0.43574427960000001,
            0.43574427960000001,
            0.43574427960000001
          ],
          "specularGlossinessTexture": {
            "index": 0,
            "texCoord": 0
          }
        }
      },
      "name": "wood",
      "normalTexture": {
        "index": 1,
        "scale": 1,
        "texCoord": 0
      }
    },
    {
      "doubleSided": true,
      "extensions": {
        "KHR_materials_pbrSpecularGlossiness": {
          "diffuseFactor": [
            1,
            1,
            1,
            1
          ],
          "diffuseTexture": {
            "index": 4,
            "texCoord": 0
          },
          "glossinessFactor": 0.85356389649999997,
          "specularFactor": [
            0.49234805320000002,
            0.49234805320000002,
            0.49234805320000002
          ]
        }
      },
      "name": "steel",
      "normalTexture": {
        "index": 3,
        "scale": 1,
        "texCoord": 0
      }
    }
  ],
  "meshes": [
    {
      "name": "door_0",
      "primitives": [
        {
          "attributes": {
            "NORMAL": 1,
            "POSITION": 0,
            "TANGENT": 2,
            "TEXCOORD_0": 3
          },
          "indices": 4,
          "material": 0,
          "mode": 4
        }
      ]
    },
    {
      "name": "door_handle_0",
      "primitives": [
        {
          "attributes": {
            "NORMAL": 6,
            "POSITION": 5,
            "TANGENT": 7,
            "TEXCOORD_0": 8
          },
          "indices": 9,
          "material": 1,
          "mode": 4
        }
      ]
    },
    {
      "name": "wooden_door_bar_0",
      "primitives": [
        {
          "attributes": {
            "NORMAL": 11,
            "POSITION": 10,
            "TANGENT": 12,
            "TEXCOORD_0": 13
          },
          "indices": 14,
          "material": 0,
          "mode": 4
        }
      ]
    }
  ],
  "nodes": [
    {
      "children": [
        1
      ],
      "name": "RootNode (gltf orientation matrix)",
      "rotation": [
        -0.70710678118654746,
        -0,
        -0,
        0.70710678118654757
      ]
    },
    {
      "children": [
        2
      ],
      "name": "RootNode (model correction matrix)"
    },
    {
      "children": [
        3,
        5,
        7
      ],
      "name": "Root"
    },
    {
      "children": [
        4
      ],
      "matrix": [
        1,
        0,
        0,
        0,
        0,
        1,
        0,
        0,
        0,
        0,
        1,
        0,
        -0.14233000000000001,
        3.0516299999999998,
        0.047110000000000013,
        1
      ],
      "name": "door"
    },
    {
      "mesh": 0,
      "name": "door_0"
    },
    {
      "children": [
        6
      ],
      "matrix": [
        0,
        0.088070000000000023,
        0,
        0,
        -0,
        -0,
        0.088070000000000023,
        0,
        0.088070000000000023,
        -0,
        0,
        0,
        0.067190000000000027,
        1.8418599999999998,
        0.35599000000000003,
        1
      ],
      "name": "door_handle"
    },
    {
      "mesh": 1,
      "name": "door_handle_0"
    },
    {
      "children": [
        8
      ],
      "matrix": [
        1,
        0,
        0,
        0,
        0,
        0.99224999999999997,
        0,
        0,
        0,
        0,
        1,
        0,
        -0.04191000000000001,
        3.0529199999999999,
        2.8726799999999995,
        1
      ],
      "name": "wooden_door_bar"
    },
    {
      "mesh": 2,
      "name": "wooden_door_bar_0"
    }
  ],
  "samplers": [
    {
      "magFilter": 9729,
      "minFilter": 9987,
      "wrapS": 10497,
      "wrapT": 10497
    }
  ],
  "scene": 0,
  "scenes": [
    {
      "name": "OSG_Scene",
      "nodes": [
        0
      ]
    }
  ],
  "textures": [
    {
      "sampler": 0,
      "source": 0
    },
    {
      "sampler": 0,
      "source": 1
    },
    {
      "sampler": 0,
      "source": 2
    },
    {
      "sampler": 0,
      "source": 3
    },
    {
      "sampler": 0,
      "source": 4
    }
  ]
}

