{
  "accessors": [
    {
      "bufferView": 2,
      "componentType": 5126,
      "count": 31979,
      "max": [
        0.2020508050918579,
        0.13976679742336273,
        0.25365421175956726
      ],
      "min": [
        -0.21400639414787292,
        -0.14366519451141357,
        -0.14233410358428955
      ],
      "type": "VEC3"
    },
    {
      "bufferView": 2,
      "byteOffset": 383748,
      "componentType": 5126,
      "count": 31979,
      "max": [
        0.9999608397483826,
        0.9998282194137573,
        0.9999834299087524
      ],
      "min": [
        -0.9999480843544006,
        -0.9999942183494568,
        -1.0
      ],
      "type": "VEC3"
    },
    {
      "bufferView": 1,
      "componentType": 5126,
      "count": 31979,
      "max": [
        0.6523438096046448,
        0.9867039918899536
      ],
      "min": [
        0.005203499924391508,
        0.012577000074088573
      ],
      "type": "VEC2"
    },
    {
      "bufferView": 0,
      "componentType": 5125,
      "count": 176742,
      "type": "SCALAR"
    }
  ],
  "asset": {
    "extras": {
      "author": "thekeisipyhi4 (https://sketchfab.com/thekeisipyhi4)",
      "license": "CC-BY-4.0 (http://creativecommons.org/licenses/by/4.0/)",
      "source": "https://sketchfab.com/3d-models/elon-musk-9e9fe76611d344558275c2c3cafe39f6",
      "title": "Elon Musk"
    },
    "generator": "Sketchfab-11.12.0",
    "version": "2.0"
  },
  "bufferViews": [
    {
      "buffer": 0,
      "byteLength": 706968,
      "name": "floatBufferViews",
      "target": 34963
    },
    {
      "buffer": 0,
      "byteLength": 255832,
      "byteOffset": 706968,
      "byteStride": 8,
      "name": "floatBufferViews",
      "target": 34962
    },
    {
      "buffer": 0,
      "byteLength": 767496,
      "byteOffset": 962800,
      "byteStride": 12,
      "name": "floatBufferViews",
      "target": 34962
    }
  ],
  "buffers": [
    {
      "byteLength": 1730296,
      "uri": "scene.bin"
    }
  ],
  "images": [
    {
      "uri": "textures/material_0_baseColor.png"
    }
  ],
  "materials": [
    {
      "doubleSided": true,
      "name": "material_0",
      "pbrMetallicRoughness": {
        "baseColorTexture": {
          "index": 0
        },
        "metallicFactor": 0.0
      }
    }
  ],
  "meshes": [
    {
      "name": "Object_0",
      "primitives": [
        {
          "attributes": {
            "NORMAL": 1,
            "POSITION": 0,
            "TEXCOORD_0": 2
          },
          "indices": 3,
          "material": 0,
          "mode": 4
        }
      ]
    }
  ],
  "nodes": [
    {
      "children": [
        1
      ],
      "matrix": [
        1.0,
        0.0,
        0.0,
        0.0,
        0.0,
        2.220446049250313e-16,
        -1.0,
        0.0,
        0.0,
        1.0,
        2.220446049250313e-16,
        0.0,
        0.0,
        0.0,
        0.0,
        1.0
      ],
      "name": "Sketchfab_model"
    },
    {
      "children": [
        2
      ],
      "name": "model.obj.cleaner.materialmerger.gles"
    },
    {
      "mesh": 0,
      "name": "Object_2"
    }
  ],
  "samplers": [
    {
      "magFilter": 9729,
      "minFilter": 9987,
      "wrapS": 10497,
      "wrapT": 10497
    }
  ],
  "scene": 0,
  "scenes": [
    {
      "name": "Sketchfab_Scene",
      "nodes": [
        0
      ]
    }
  ],
  "textures": [
    {
      "sampler": 0,
      "source": 0
    }
  ]
}
